<?xml version="1.0" encoding="UTF-8" standalone="no"?>
<svg
   xmlns:dc="http://purl.org/dc/elements/1.1/"
   xmlns:cc="http://creativecommons.org/ns#"
   xmlns:rdf="http://www.w3.org/1999/02/22-rdf-syntax-ns#"
   xmlns:svg="http://www.w3.org/2000/svg"
   xmlns="http://www.w3.org/2000/svg"
   xmlns:sodipodi="http://sodipodi.sourceforge.net/DTD/sodipodi-0.dtd"
   xmlns:inkscape="http://www.inkscape.org/namespaces/inkscape"
   viewBox="0 0 576.70001 402.29999"
   id="svg2"
   version="1.1"
   inkscape:version="0.91 r13725"
   sodipodi:docname="08-1.svg"
   width="576.70001"
   height="402.29999">
  <metadata
     id="metadata68">
    <rdf:RDF>
      <cc:Work
         rdf:about="">
        <dc:format>image/svg+xml</dc:format>
        <dc:type
           rdf:resource="http://purl.org/dc/dcmitype/StillImage" />
        <dc:title></dc:title>
      </cc:Work>
    </rdf:RDF>
  </metadata>
  <defs
     id="defs66" />
  <sodipodi:namedview
     pagecolor="#ffffff"
     bordercolor="#666666"
     borderopacity="1"
     objecttolerance="10"
     gridtolerance="10"
     guidetolerance="10"
     inkscape:pageopacity="0"
     inkscape:pageshadow="2"
     inkscape:window-width="1280"
     inkscape:window-height="751"
     id="namedview64"
     showgrid="false"
     fit-margin-top="20"
     fit-margin-left="20"
     fit-margin-right="20"
     fit-margin-bottom="20"
     inkscape:zoom="0.85584769"
     inkscape:cx="342.72746"
     inkscape:cy="137.34342"
     inkscape:window-x="25"
     inkscape:window-y="32"
     inkscape:window-maximized="0"
     inkscape:current-layer="flowRoot4196" />
  <style
     id="style4">.st0{display:none;} .st1{display:inline;} .st2{fill:#FFFFFF;} .st3{fill:none;stroke:#9882CE;stroke-width:4;stroke-miterlimit:10;} .st4{fill:#FFFFFF;stroke:#404040;stroke-width:4;stroke-linecap:round;stroke-linejoin:round;stroke-miterlimit:10;} .st5{fill:#FFFFFF;stroke:#404040;stroke-width:4;stroke-miterlimit:10;} .st6{fill:#B3E3FF;stroke:#404040;stroke-width:4;stroke-miterlimit:10;} .st7{fill:#B18BE8;stroke:#404040;stroke-width:4;stroke-miterlimit:10;} .st8{fill:#FFFFFF;stroke:#404040;stroke-width:6;stroke-miterlimit:10;} .st9{fill:#B3E3FF;stroke:#404040;stroke-width:6;stroke-miterlimit:10;} .st10{fill:#404040;} .st11{fill:none;stroke:#404040;stroke-width:4;stroke-linecap:round;stroke-linejoin:round;stroke-miterlimit:10;} .st12{fill:#B18BE8;stroke:#404040;stroke-width:4;stroke-linecap:round;stroke-linejoin:round;stroke-miterlimit:10;} .st13{fill:#444444;} .st14{fill:none;stroke:#404040;stroke-width:4;stroke-miterlimit:10;} .st15{fill:#4ED1A1;stroke:#404040;stroke-width:4;stroke-miterlimit:10;} .st16{fill:none;stroke:#CCCCCC;stroke-width:7;stroke-linecap:round;stroke-linejoin:round;stroke-miterlimit:10;} .st17{fill:#FFFFFF;stroke:#CCCCCC;stroke-width:7;stroke-linecap:round;stroke-linejoin:round;stroke-miterlimit:10;} .st18{fill:none;stroke:#404040;stroke-width:7;stroke-miterlimit:10;} .st19{fill:#B3E3FF;stroke:#404040;stroke-width:7;stroke-miterlimit:10;} .st20{fill:none;stroke:#CCCCCC;stroke-width:8;stroke-linecap:round;stroke-miterlimit:10;} .st21{fill:none;stroke:#404040;stroke-width:8;stroke-linecap:round;stroke-miterlimit:10;} .st22{fill:#FFFFFF;stroke:#404040;stroke-width:4;stroke-linejoin:round;stroke-miterlimit:10;} .st23{fill:#B3E3FF;stroke:#404040;stroke-width:4;stroke-linejoin:round;stroke-miterlimit:10;} .st24{fill:none;stroke:#CCCCCC;stroke-linecap:round;stroke-linejoin:round;stroke-miterlimit:10;} .st25{fill:#999999;} .st26{fill:#4ED1A1;stroke:#404040;stroke-width:4;stroke-linecap:round;stroke-linejoin:round;stroke-miterlimit:10;} .st27{fill:#4CD3D6;stroke:#404040;stroke-width:4;stroke-linejoin:round;stroke-miterlimit:10;} .st28{fill:none;stroke:#59AFE1;stroke-width:4;stroke-miterlimit:10;} .st29{fill:#59AFE1;stroke:#404040;stroke-width:4;stroke-linejoin:round;stroke-miterlimit:10;} .st30{fill:none;stroke:#404040;stroke-width:8;stroke-linecap:round;stroke-linejoin:round;stroke-miterlimit:10;stroke-dasharray:0,30;} .st31{fill:#FFFFFF;stroke:#59AFE1;stroke-width:4;stroke-miterlimit:10;} .st32{fill:#FC8363;stroke:#404040;stroke-width:4;stroke-linecap:round;stroke-linejoin:round;stroke-miterlimit:10;} .st33{fill:#CCCCCC;stroke:#404040;stroke-width:4;stroke-miterlimit:10;} .st34{fill:#FFFFFF;stroke:#6693ED;stroke-width:4;stroke-miterlimit:10;} .st35{fill:none;stroke:#A97CDD;stroke-width:4;stroke-linecap:round;stroke-linejoin:round;stroke-miterlimit:10;} .st36{fill:none;stroke:#B3E3FF;stroke-width:4;stroke-linecap:round;stroke-linejoin:round;stroke-miterlimit:10;} .st37{fill:none;stroke:#4ED1A1;stroke-width:4;stroke-linecap:round;stroke-miterlimit:10;} .st38{fill:none;stroke:#4ED1A1;stroke-width:4;stroke-linecap:round;stroke-linejoin:round;stroke-miterlimit:10;} .st39{fill:#E24B88;stroke:#404040;stroke-width:4;stroke-linecap:round;stroke-linejoin:round;stroke-miterlimit:10;} .st40{fill:none;stroke:#DEEFF8;stroke-width:4;stroke-miterlimit:10;} .st41{fill:none;stroke:#CCCCCC;stroke-width:4;stroke-linecap:round;stroke-linejoin:round;} .st42{fill:none;stroke:#CCCCCC;stroke-width:4;stroke-linecap:round;stroke-linejoin:round;stroke-dasharray:0,14.3051;} .st43{fill:none;stroke:#CCCCCC;stroke-width:4;stroke-linecap:round;stroke-linejoin:round;stroke-dasharray:0,14.1689;} .st44{fill:none;stroke:#CCCCCC;stroke-width:4;stroke-linecap:round;stroke-linejoin:round;stroke-dasharray:0,13.9788;} .st45{fill:none;stroke:#CCCCCC;stroke-width:4;stroke-linecap:round;stroke-linejoin:round;stroke-dasharray:0,14.7877;} .st46{fill:none;stroke:#CCCCCC;stroke-width:4;stroke-linecap:round;stroke-linejoin:round;stroke-dasharray:0,14.9632;} .st47{fill:#B3E3FF;stroke:#404040;stroke-width:4;stroke-linecap:round;stroke-linejoin:round;stroke-miterlimit:10;} .st48{fill:none;stroke:#CCCCCC;stroke-width:4;stroke-linecap:round;stroke-linejoin:round;stroke-dasharray:0,12.543;} .st49{fill:none;stroke:#CCCCCC;stroke-width:4;stroke-linecap:round;stroke-linejoin:round;stroke-dasharray:0,13.6844;} .st50{fill:none;stroke:#CCCCCC;stroke-width:4;stroke-linecap:round;stroke-linejoin:round;stroke-dasharray:0,13.7717;} .st51{fill:none;stroke:#CCCCCC;stroke-width:4;stroke-linecap:round;stroke-linejoin:round;stroke-dasharray:0,13.6492;} .st52{fill:none;stroke:#CCCCCC;stroke-width:4;stroke-linecap:round;stroke-linejoin:round;stroke-dasharray:0,13.907;} .st53{fill:#4CD3D6;stroke:#404040;stroke-width:4;stroke-linecap:round;stroke-linejoin:round;stroke-miterlimit:10;} .st54{fill:none;stroke:#CCCCCC;stroke-width:4;stroke-linecap:round;stroke-linejoin:round;stroke-dasharray:0,14.9858;} .st55{fill:none;stroke:#CCCCCC;stroke-width:4;stroke-linecap:round;stroke-linejoin:round;stroke-dasharray:0,14.0118;} .st56{fill:none;stroke:#CCCCCC;stroke-width:4;stroke-linecap:round;stroke-linejoin:round;stroke-dasharray:0,14.1243;} .st57{fill:none;} .st58{fill:#FFFFFF;stroke:#404040;stroke-width:7;stroke-linecap:round;stroke-linejoin:round;stroke-miterlimit:10;} .st59{fill:#59AFE1;stroke:#404040;stroke-width:7;stroke-linejoin:round;stroke-miterlimit:10;} .st60{fill:#E24B88;stroke:#404040;stroke-width:7;stroke-linecap:round;stroke-linejoin:round;stroke-miterlimit:10;} .st61{fill:none;stroke:#404040;stroke-width:7;stroke-linecap:round;stroke-linejoin:round;stroke-miterlimit:10;} .st62{fill:none;stroke:#CCCCCC;stroke-width:4;stroke-linecap:round;stroke-linejoin:round;stroke-miterlimit:10;} .st63{fill:#FFFFFF;stroke:#CCCCCC;stroke-width:4;stroke-linecap:round;stroke-linejoin:round;stroke-miterlimit:10;} .st64{fill:#F5F5F5;} .st65{fill:#3873AE;} .st66{fill:#75706C;} .st67{fill:none;stroke:#B3E3FF;stroke-width:4;stroke-miterlimit:10;} .st68{fill:#6F6F6F;} .st69{fill:none;stroke:#6F6F6F;stroke-width:2;stroke-miterlimit:10;} .st70{fill:none;stroke:#6F6F6F;stroke-width:3;stroke-miterlimit:10;}</style>
  <g
     id="git_x5F_branch_x5F_9"
     transform="translate(-27,-713.9)">
    <path
       class="st23"
       d="m 187.42712,1044.2 96.2,0 0,50 -96.2,0 z"
       id="path9"
       inkscape:connector-curvature="0"
       style="fill:#b3e3ff;stroke:#404040;stroke-width:4;stroke-linejoin:round;stroke-miterlimit:10" />
    <path
       class="st10"
       d="m 222.12712,1075.2 0,-8.3 -3.6,8.3 -1.3,0 -3.6,-8.3 0,8.3 -1.5,0 0,-10.6 2,0 3.7,8.7 3.8,-8.7 2,0 0,10.6 -1.5,0 z m 6.5,-4.1 1.9,-0.3 c 0.4,-0.1 0.6,-0.3 0.6,-0.5 0,-0.7 -0.5,-1.3 -1.6,-1.3 -1,0 -1.5,0.6 -1.6,1.5 l -1.4,-0.3 c 0.2,-1.4 1.4,-2.3 3,-2.3 2.2,0 3,1.2 3,2.6 l 0,3.6 c 0,0.6 0.1,1 0.1,1.2 l -1.4,0 c 0,-0.2 -0.1,-0.5 -0.1,-1 -0.3,0.5 -1,1.2 -2.3,1.2 -1.5,0 -2.4,-1 -2.4,-2.2 0,-1.3 0.9,-2 2.2,-2.2 z m 2.5,1.1 0,-0.3 -2.2,0.3 c -0.6,0.1 -1,0.4 -1,1.1 0,0.5 0.4,1 1.2,1 1,0 2,-0.6 2,-2.1 z m 4.9,0.7 c 0.1,0.8 0.7,1.3 1.7,1.3 0.8,0 1.2,-0.4 1.2,-1 0,-0.4 -0.3,-0.8 -0.9,-0.9 l -1.2,-0.3 c -1.1,-0.2 -1.8,-1 -1.8,-2 0,-1.2 1.2,-2.3 2.6,-2.3 2,0 2.6,1.3 2.7,1.9 l -1.2,0.5 c -0.1,-0.4 -0.4,-1.2 -1.5,-1.2 -0.7,0 -1.2,0.5 -1.2,1 0,0.4 0.3,0.8 0.8,0.9 l 1.2,0.3 c 1.3,0.3 2,1.1 2,2.1 0,1 -0.9,2.2 -2.6,2.2 -2,0 -2.8,-1.3 -2.9,-2.1 l 1.1,-0.4 z m 8.8,-4.9 1.6,0 0,1.3 -1.6,0 0,3.8 c 0,0.7 0.3,1 1,1 0.2,0 0.4,0 0.6,-0.1 l 0,1.2 c -0.1,0 -0.5,0.1 -1,0.1 -1.2,0 -2,-0.8 -2,-2.1 l 0,-4 -1.4,0 0,-1.3 0.4,0 c 0.8,0 1.1,-0.5 1.1,-1.1 l 0,-1.2 1.3,0 0,2.4 z m 10.4,5.2 c -0.4,1.3 -1.6,2.3 -3.2,2.3 -1.9,0 -3.6,-1.4 -3.6,-3.9 0,-2.3 1.6,-3.8 3.4,-3.8 2.2,0 3.5,1.5 3.5,3.8 l 0,0.4 -5.4,0 c 0,1.3 1,2.2 2.2,2.2 1.2,0 1.8,-0.6 2,-1.5 l 1.1,0.5 z m -1.4,-2.3 c 0,-1 -0.7,-1.8 -2,-1.8 -1.2,0 -1.9,0.9 -2,1.8 l 4,0 z m 8,-1.4 -0.6,0 c -1.2,0 -2,0.6 -2,2.2 l 0,3.6 -1.4,0 0,-7.2 1.4,0 0,1.3 c 0.5,-1.1 1.4,-1.4 2.2,-1.4 l 0.5,0 0,1.5 z"
       id="path11"
       inkscape:connector-curvature="0"
       style="fill:#404040" />
    <path
       class="st11"
       d="m 235.52712,999.53157 0,23.50003 m -10.8,-14.8 10.8,-10.80003 10.9,10.80003 M 530.8,874.1 l -83,0 41.2,0 m -154.9,41 c 0,22.6 -18.4,41 -41,41 l -202.1,0 m 243.1,-41 c 0,-22.6 18.4,-41 41,-41 l 30.7,0"
       id="path13"
       inkscape:connector-curvature="0"
       style="fill:none;stroke:#404040;stroke-width:4;stroke-linecap:round;stroke-linejoin:round;stroke-miterlimit:10"
       sodipodi:nodetypes="cccccccccsccsc" />
    <circle
       class="st4"
       cx="236.5"
       cy="956.09998"
       r="21"
       id="circle15"
       style="fill:#ffffff;stroke:#404040;stroke-width:4;stroke-linecap:round;stroke-linejoin:round;stroke-miterlimit:10" />
    <circle
       class="st4"
       cx="153.2"
       cy="956.09998"
       r="21"
       id="circle17"
       style="fill:#ffffff;stroke:#404040;stroke-width:4;stroke-linecap:round;stroke-linejoin:round;stroke-miterlimit:10" />
    <circle
       class="st4"
       cx="510"
       cy="874.09998"
       r="21"
       id="circle19"
       style="fill:#ffffff;stroke:#404040;stroke-width:4;stroke-linecap:round;stroke-linejoin:round;stroke-miterlimit:10" />
    <circle
       class="st4"
       cx="426.79999"
       cy="874.09998"
       r="21"
       id="circle21"
       style="fill:#ffffff;stroke:#404040;stroke-width:4;stroke-linecap:round;stroke-linejoin:round;stroke-miterlimit:10" />
    <circle
       class="st29"
       cx="236.69557"
       cy="955.26843"
       r="21"
       id="circle25"
       style="fill:#59afe1;stroke:#404040;stroke-width:4;stroke-linejoin:round;stroke-miterlimit:10" />
    <circle
       class="st4"
       cx="70"
       cy="956.09998"
       r="21"
       id="circle27"
       style="fill:#ffffff;stroke:#404040;stroke-width:4;stroke-linecap:round;stroke-linejoin:round;stroke-miterlimit:10" />
    <path
       class="st11"
       d="m 510,831.4 0,-23.5 m 10.9,14.8 -10.9,10.9 -10.8,-10.9"
       id="path29"
       inkscape:connector-curvature="0"
       style="fill:none;stroke:#404040;stroke-width:4;stroke-linecap:round;stroke-linejoin:round;stroke-miterlimit:10" />
    <path
       class="st12"
       d="m 440.1,735.9 141.6,0 0,50 -141.6,0 z"
       id="path31"
       inkscape:connector-curvature="0"
       style="fill:#b18be8;stroke:#404040;stroke-width:4;stroke-linecap:round;stroke-linejoin:round;stroke-miterlimit:10" />
    <g
       transform="translate(52.705508,732.0107)"
       style="font-style:normal;font-weight:normal;font-size:15px;line-height:125%;font-family:sans-serif;letter-spacing:0px;word-spacing:0px;fill:#000000;fill-opacity:1;stroke:none;stroke-width:1px;stroke-linecap:butt;stroke-linejoin:miter;stroke-opacity:1"
       id="flowRoot4196">
      <path
         d="m 406.23584,26.209538 q 0.50537,-0.908203 1.2085,-1.340332 0.70312,-0.432129 1.65527,-0.432129 1.28174,0 1.97754,0.900879 0.6958,0.893555 0.6958,2.548828 l 0,4.951172 -1.35498,0 0,-4.907226 q 0,-1.1792 -0.41748,-1.750489 -0.41748,-0.571289 -1.27442,-0.571289 -1.04736,0 -1.65527,0.695801 -0.60791,0.695801 -0.60791,1.896973 l 0,4.63623 -1.35498,0 0,-4.907226 q 0,-1.186524 -0.41748,-1.750489 -0.41748,-0.571289 -1.28906,-0.571289 -1.03272,0 -1.64063,0.703125 -0.60791,0.695801 -0.60791,1.889649 l 0,4.63623 -1.35498,0 0,-8.203125 1.35498,0 0,1.274414 q 0.46143,-0.754394 1.10596,-1.113281 0.64453,-0.358887 1.53076,-0.358887 0.89356,0 1.51611,0.454102 0.62989,0.454101 0.93018,1.318359 z"
         style="fill:#404040;fill-opacity:1"
         id="path4177" />
      <path
         d="m 417.85205,33.599675 q -0.57129,1.464844 -1.11328,1.911621 -0.54199,0.446777 -1.4502,0.446777 l -1.07666,0 0,-1.127929 0.79102,0 q 0.55664,0 0.86426,-0.263672 0.30761,-0.263672 0.68115,-1.245117 l 0.2417,-0.615235 -3.31787,-8.071289 1.42822,0 2.56348,6.416016 2.56347,-6.416016 1.42823,0 -3.60352,8.964844 z"
         style="fill:#404040;fill-opacity:1"
         id="path4179" />
      <path
         d="m 422.38574,28.128484 3.94776,0 0,1.201171 -3.94776,0 0,-1.201171 z"
         style="fill:#404040;fill-opacity:1"
         id="path4181" />
      <path
         d="m 435.32031,27.886784 0,4.951172 -1.34765,0 0,-4.907226 q 0,-1.164551 -0.45411,-1.743164 -0.4541,-0.578614 -1.3623,-0.578614 -1.09131,0 -1.72119,0.695801 -0.62988,0.695801 -0.62988,1.896973 l 0,4.63623 -1.35498,0 0,-8.203125 1.35498,0 0,1.274414 q 0.48339,-0.739746 1.13525,-1.105957 0.65918,-0.366211 1.51611,-0.366211 1.41358,0 2.13867,0.878907 0.7251,0.871582 0.7251,2.5708 z"
         style="fill:#404040;fill-opacity:1"
         id="path4183" />
      <path
         d="m 445.03955,28.39948 0,0.659179 -6.19629,0 q 0.0879,1.391602 0.83496,2.124024 0.7544,0.725097 2.09473,0.725097 0.77637,0 1.50146,-0.190429 0.73243,-0.19043 1.4502,-0.571289 l 0,1.274414 q -0.7251,0.307617 -1.48682,0.46875 -0.76172,0.161133 -1.54541,0.161133 -1.96289,0 -3.11279,-1.142579 -1.14258,-1.142578 -1.14258,-3.09082 0,-2.01416 1.08399,-3.193359 1.0913,-1.186524 2.93701,-1.186524 1.65527,0 2.61474,1.069336 0.9668,1.062012 0.9668,2.893067 z m -1.34766,-0.395508 q -0.0146,-1.105957 -0.62255,-1.765137 -0.60059,-0.65918 -1.59668,-0.65918 -1.12793,0 -1.80909,0.637207 -0.67382,0.637207 -0.77636,1.794434 l 4.80468,-0.0073 z"
         style="fill:#404040;fill-opacity:1"
         id="path4185" />
      <path
         d="m 446.43848,24.634831 1.34765,0 1.68457,6.401367 1.67725,-6.401367 1.58935,0 1.68457,6.401367 1.67725,-6.401367 1.34766,0 -2.146,8.203125 -1.58935,0 -1.76514,-6.723633 -1.77246,6.723633 -1.58936,0 -2.14599,-8.203125 z"
         style="fill:#404040;fill-opacity:1"
         id="path4187" />
      <path
         d="m 458.81641,28.128484 3.94775,0 0,1.201171 -3.94775,0 0,-1.201171 z"
         style="fill:#404040;fill-opacity:1"
         id="path4189" />
      <path
         d="m 470.80615,28.743718 q 0,-1.486817 -0.61523,-2.329102 -0.60791,-0.849609 -1.67725,-0.849609 -1.06933,0 -1.68457,0.849609 -0.60791,0.842285 -0.60791,2.329102 0,1.486816 0.60791,2.336426 0.61524,0.842285 1.68457,0.842285 1.06934,0 1.67725,-0.842285 0.61523,-0.84961 0.61523,-2.336426 z m -4.58496,-2.86377 q 0.42481,-0.732422 1.06934,-1.083984 0.65185,-0.358887 1.55273,-0.358887 1.49414,0 2.42432,1.186524 0.9375,1.186523 0.9375,3.120117 0,1.933594 -0.9375,3.120117 -0.93018,1.186524 -2.42432,1.186524 -0.90088,0 -1.55273,-0.351563 -0.64453,-0.358887 -1.06934,-1.091309 l 0,1.230469 -1.35498,0 0,-11.396484 1.35498,0 0,4.438476 z"
         style="fill:#404040;fill-opacity:1"
         id="path4191" />
      <path
         d="m 479.19238,25.894597 q -0.22705,-0.131836 -0.49804,-0.19043 -0.26368,-0.06592 -0.58594,-0.06592 -1.14258,0 -1.75781,0.74707 -0.60791,0.739747 -0.60791,2.131348 l 0,4.321289 -1.35498,0 0,-8.203125 1.35498,0 0,1.274414 q 0.4248,-0.74707 1.10595,-1.105957 0.68116,-0.366211 1.65528,-0.366211 0.13916,0 0.30761,0.02197 0.16846,0.01465 0.37354,0.05127 l 0.007,1.384278 z"
         style="fill:#404040;fill-opacity:1"
         id="path4193" />
      <path
         d="m 484.34863,28.714421 q -1.6333,0 -2.26318,0.373535 -0.62988,0.373535 -0.62988,1.274414 0,0.717774 0.46875,1.142578 0.47607,0.417481 1.28906,0.417481 1.1206,0 1.79443,-0.791016 0.68115,-0.79834 0.68115,-2.116699 l 0,-0.300293 -1.34033,0 z m 2.68799,-0.556641 0,4.680176 -1.34766,0 0,-1.245117 q -0.46142,0.74707 -1.1499,1.105957 -0.68847,0.351563 -1.68457,0.351563 -1.25976,0 -2.00683,-0.703125 -0.73975,-0.71045 -0.73975,-1.896973 0,-1.384277 0.92285,-2.087402 0.93018,-0.703125 2.76856,-0.703125 l 1.88964,0 0,-0.131836 q 0,-0.930176 -0.61523,-1.435547 -0.60791,-0.512696 -1.71387,-0.512696 -0.70312,0 -1.36963,0.168457 -0.6665,0.168457 -1.28173,0.505372 l 0,-1.245118 q 0.73974,-0.285644 1.43554,-0.424804 0.6958,-0.146485 1.35498,-0.146485 1.77979,0 2.65869,0.922852 0.87891,0.922851 0.87891,2.797851 z"
         style="fill:#404040;fill-opacity:1"
         id="path4195" />
      <path
         d="m 496.66797,27.886784 0,4.951172 -1.34766,0 0,-4.907226 q 0,-1.164551 -0.4541,-1.743164 -0.4541,-0.578614 -1.3623,-0.578614 -1.09131,0 -1.7212,0.695801 -0.62988,0.695801 -0.62988,1.896973 l 0,4.63623 -1.35498,0 0,-8.203125 1.35498,0 0,1.274414 q 0.4834,-0.739746 1.13526,-1.105957 0.65918,-0.366211 1.51611,-0.366211 1.41357,0 2.13867,0.878907 0.7251,0.871582 0.7251,2.5708 z"
         style="fill:#404040;fill-opacity:1"
         id="path4197" />
      <path
         d="m 505.27393,24.949773 0,1.259765 q -0.57129,-0.314941 -1.14991,-0.46875 -0.57129,-0.161133 -1.15722,-0.161133 -1.31104,0 -2.03614,0.834961 -0.72509,0.827637 -0.72509,2.329102 0,1.501465 0.72509,2.336426 0.7251,0.827636 2.03614,0.827636 0.58593,0 1.15722,-0.153808 0.57862,-0.161133 1.14991,-0.476074 l 0,1.245117 q -0.56397,0.263672 -1.17188,0.395508 -0.60059,0.131836 -1.28174,0.131836 -1.85302,0 -2.94433,-1.164551 -1.09131,-1.164551 -1.09131,-3.14209 0,-2.006836 1.09863,-3.156738 1.10596,-1.149903 3.0249,-1.149903 0.62256,0 1.21582,0.131836 0.59327,0.124512 1.14991,0.38086 z"
         style="fill:#404040;fill-opacity:1"
         id="path4199" />
      <path
         d="m 514.42187,27.886784 0,4.951172 -1.34765,0 0,-4.907226 q 0,-1.164551 -0.4541,-1.743164 -0.4541,-0.578614 -1.36231,-0.578614 -1.09131,0 -1.72119,0.695801 -0.62988,0.695801 -0.62988,1.896973 l 0,4.63623 -1.35498,0 0,-11.396484 1.35498,0 0,4.467773 q 0.4834,-0.739746 1.13525,-1.105957 0.65918,-0.366211 1.51612,-0.366211 1.41357,0 2.13867,0.878907 0.72509,0.871582 0.72509,2.5708 z"
         style="fill:#404040;fill-opacity:1"
         id="path4201" />
    </g>
  </g>
</svg>
